<?xml version="1.0" encoding="UTF-8" standalone="no"?>
<!-- Created with Inkscape (http://www.inkscape.org/) -->

<svg
   xmlns:dc="http://purl.org/dc/elements/1.1/"
   xmlns:cc="http://creativecommons.org/ns#"
   xmlns:rdf="http://www.w3.org/1999/02/22-rdf-syntax-ns#"
   xmlns:svg="http://www.w3.org/2000/svg"
   xmlns="http://www.w3.org/2000/svg"
   xmlns:sodipodi="http://sodipodi.sourceforge.net/DTD/sodipodi-0.dtd"
   xmlns:inkscape="http://www.inkscape.org/namespaces/inkscape"
   width="98.355194mm"
   height="97.553391mm"
   viewBox="0 0 98.355194 97.55339"
   version="1.1"
   id="svg8"
   inkscape:version="0.92.1 r15371"
   sodipodi:docname="bot drawing.svg">
  <defs
     id="defs2" />
  <sodipodi:namedview
     id="base"
     pagecolor="#ffffff"
     bordercolor="#666666"
     borderopacity="1.0"
     inkscape:pageopacity="0.0"
     inkscape:pageshadow="2"
     inkscape:zoom="0.98994949"
     inkscape:cx="466.67455"
     inkscape:cy="58.517537"
     inkscape:document-units="mm"
     inkscape:current-layer="layer2"
     showgrid="false"
     inkscape:window-width="2560"
     inkscape:window-height="1377"
     inkscape:window-x="1192"
     inkscape:window-y="-8"
     inkscape:window-maximized="1"
     fit-margin-top="0"
     fit-margin-left="0"
     fit-margin-right="0"
     fit-margin-bottom="0" />
  <metadata
     id="metadata5">
    <rdf:RDF>
      <cc:Work
         rdf:about="">
        <dc:format>image/svg+xml</dc:format>
        <dc:type
           rdf:resource="http://purl.org/dc/dcmitype/StillImage" />
        <dc:title></dc:title>
      </cc:Work>
    </rdf:RDF>
  </metadata>
  <g
     inkscape:label="Layer 1"
     inkscape:groupmode="layer"
     id="layer1"
     transform="translate(-81.673654,-57.006577)">
    <g
       transform="matrix(1.0986508,0,0,-1.0986508,-44.047656,283.72823)"
       inkscape:label="ink_ext_XXXXXX"
       id="g18">
      <g
         inkscape:groupmode="layer"
         id="layer2"
         inkscape:label="Layer 2">
        <rect
           id="rect83"
           width="89.523621"
           height="88.793808"
           x="114.43246"
           y="-206.36371"
           style="opacity:1;fill:#3db4e7;fill-opacity:1;stroke-width:0.24082571"
           transform="scale(1,-1)"
           ry="8.5144739" />
      </g>
      <g
         transform="matrix(0.1,0,0,0.1,0.72981517,-9.9740985)"
         id="g20">
        <path
           inkscape:connector-curvature="0"
           id="path24"
           style="fill:#333333;fill-opacity:1;fill-rule:nonzero;stroke:none;stroke-width:0.32619047"
           d="m 1498.2392,1817.6109 h -125.6013 c -5.4037,0 -9.7857,4.3808 -9.7857,9.7858 v 88.3584 c 0,5.405 4.382,9.7857 9.7857,9.7857 h 125.6013 c 5.405,0 9.7857,-4.3807 9.7857,-9.7857 v -88.3584 c 0,-5.405 -4.3807,-9.7858 -9.7857,-9.7858" />
        <path
           inkscape:connector-curvature="0"
           id="path26"
           style="fill:#333333;fill-opacity:1;fill-rule:nonzero;stroke:none;stroke-width:0.32619047"
           d="m 1433.4708,1925.5408 h 3.9372 v 48.6445 h -3.9372 z" />
        <path
           inkscape:connector-curvature="0"
           id="path28"
           style="fill:#333333;fill-opacity:1;fill-rule:nonzero;stroke:none;stroke-width:0.32619047"
           d="m 1448.9322,1974.1856 c 0,-7.4502 -6.041,-13.4912 -13.4945,-13.4912 -7.4492,0 -13.4902,6.041 -13.4902,13.4912 0,7.4535 6.041,13.4913 13.4902,13.4913 7.4535,0 13.4945,-6.0378 13.4945,-13.4913" />
        <path
           inkscape:connector-curvature="0"
           id="path30"
           style="fill:#333333;fill-opacity:1;fill-rule:nonzero;stroke:none;stroke-width:0.32619047"
           d="m 1486.6757,1925.5408 h 3.9372 v 13.6809 h -3.9372 z" />
        <path
           inkscape:connector-curvature="0"
           id="path32"
           style="fill:#333333;fill-opacity:1;fill-rule:nonzero;stroke:none;stroke-width:0.32619047"
           d="m 1488.6427,1955.4949 c -3.9404,0 -7.1501,-3.2064 -7.1501,-7.1501 0,-3.9436 3.2097,-7.1533 7.1501,-7.1533 3.9469,0 7.1533,3.2097 7.1533,7.1533 0,3.9437 -3.2064,7.1501 -7.1533,7.1501 z m 0,-18.2406 c -6.1128,0 -11.0873,4.9745 -11.0873,11.0905 0,6.1128 4.9745,11.0872 11.0873,11.0872 6.116,0 11.0904,-4.9744 11.0904,-11.0872 0,-6.116 -4.9744,-11.0905 -11.0904,-11.0905" />
        <path
           inkscape:connector-curvature="0"
           id="path34"
           style="fill:#333333;fill-opacity:1;fill-rule:nonzero;stroke:none;stroke-width:0.32619047"
           d="m 1380.2652,1925.5408 h 3.9372 v 13.6809 h -3.9372 z" />
        <path
           inkscape:connector-curvature="0"
           id="path36"
           style="fill:#333333;fill-opacity:1;fill-rule:nonzero;stroke:none;stroke-width:0.32619047"
           d="m 1382.2338,1955.4949 c -3.9437,0 -7.1521,-3.2064 -7.1521,-7.1501 0,-3.9436 3.2084,-7.1533 7.1521,-7.1533 3.9449,0 7.1533,3.2097 7.1533,7.1533 0,3.9437 -3.2084,7.1501 -7.1533,7.1501 z m 0,-18.2406 c -6.1148,0 -11.0892,4.9745 -11.0892,11.0905 0,6.1128 4.9744,11.0872 11.0892,11.0872 6.1147,0 11.0892,-4.9744 11.0892,-11.0872 0,-6.116 -4.9745,-11.0905 -11.0892,-11.0905" />
        <path
           inkscape:connector-curvature="0"
           id="path38"
           style="fill:#ffffff;fill-opacity:1;fill-rule:nonzero;stroke:none;stroke-width:0.32619047"
           d="m 1403.8961,1850.7878 c 0,0 0.2345,-0.091 0.5862,-0.2251 0.3402,-0.15 0.7952,-0.3458 1.2499,-0.5447 0.9062,-0.398 1.78,-0.8318 1.78,-0.8318 l -1.7213,-1.8691 c 0,0 -0.5033,0.8351 -0.9759,1.706 -0.2333,0.4371 -0.4678,0.8742 -0.6436,1.2004 -0.1657,0.3392 -0.2753,0.5643 -0.2753,0.5643" />
        <path
           inkscape:connector-curvature="0"
           id="path40"
           style="fill:#ffffff;fill-opacity:1;fill-rule:nonzero;stroke:none;stroke-width:0.32619047"
           d="m 1411.4774,1847.5846 c 0,0 0.4182,-0.1566 1.0464,-0.3882 0.6103,-0.2381 1.4408,-0.5154 2.2563,-0.7926 1.6349,-0.5513 3.257,-1.0047 3.257,-1.0047 l -3.2417,-6.8696 c 0,0 -0.4113,0.2806 -1.0307,0.6981 -0.6116,0.4273 -1.3965,1.0438 -2.1611,1.6701 -0.7606,0.6328 -1.4753,1.3178 -2.0041,1.8299 -0.5454,0.5317 -0.8435,0.8775 -0.8435,0.8775 l 2.7214,3.9795" />
        <path
           inkscape:connector-curvature="0"
           id="path42"
           style="fill:#ffffff;fill-opacity:1;fill-rule:nonzero;stroke:none;stroke-width:0.32619047"
           d="m 1421.9028,1844.4401 c 0,0 0.4116,-0.091 1.0285,-0.2251 0.6037,-0.1304 1.4104,-0.2805 2.2184,-0.4012 1.6042,-0.3001 3.2185,-0.4566 3.2185,-0.4566 l -1.7839,-9.864 c 0,0 -1.9725,0.4795 -3.8823,1.1318 -0.9506,0.3458 -1.8861,0.7242 -2.5779,1.021 -0.3478,0.1533 -0.6384,0.2805 -0.8423,0.3719 -0.1797,0.088 -0.2815,0.1402 -0.2815,0.1402 l 2.9025,8.282" />
        <path
           inkscape:connector-curvature="0"
           id="path44"
           style="fill:#ffffff;fill-opacity:1;fill-rule:nonzero;stroke:none;stroke-width:0.32619047"
           d="m 1432.1987,1843.0342 c 0,0 0.411,-0.023 1.0307,-0.055 0.6002,-0.026 1.4059,-0.039 2.2083,-0.026 1.6082,-0.029 3.213,0.081 3.213,0.081 l 0.8416,-10.3467 c 0,0 -2.0224,-0.2023 -4.0546,-0.2153 -1.0144,0.013 -2.0289,0.062 -2.7889,0.1141 -0.7437,0.062 -1.2395,0.1012 -1.2395,0.1012 l 0.7894,10.3467" />
        <path
           inkscape:connector-curvature="0"
           id="path46"
           style="fill:#ffffff;fill-opacity:1;fill-rule:nonzero;stroke:none;stroke-width:0.32619047"
           d="m 1442.4802,1843.3604 c 0,0 0.4142,0.049 1.0307,0.124 0.6068,0.072 1.4092,0.1924 2.2116,0.3392 1.6147,0.2414 3.2228,0.623 3.2228,0.623 l 2.9553,-8.2983 c 0,0 -1.8202,-0.8578 -3.7251,-1.5363 -0.9558,-0.3229 -1.9246,-0.61 -2.6585,-0.809 -0.7209,-0.1892 -1.2004,-0.3131 -1.2004,-0.3131 l -1.8364,9.8705" />
        <path
           inkscape:connector-curvature="0"
           id="path48"
           style="fill:#ffffff;fill-opacity:1;fill-rule:nonzero;stroke:none;stroke-width:0.32619047"
           d="m 1452.8139,1845.4024 c 0,0 0.411,0.1207 1.0275,0.3066 0.6067,0.1859 1.432,0.4208 2.2442,0.7046 0.8122,0.2772 1.644,0.548 2.254,0.7861 0.623,0.2316 1.0373,0.3816 1.0373,0.3816 l 2.753,-3.986 c 0,0 -0.3262,-0.3686 -0.8514,-0.884 -0.5284,-0.5121 -1.2427,-1.2004 -2.006,-1.8299 -0.7633,-0.6263 -1.5462,-1.2461 -2.1594,-1.6701 -0.6067,-0.4143 -1.0145,-0.6915 -1.0145,-0.6915 l -3.2847,6.8826" />
        <path
           inkscape:connector-curvature="0"
           id="path50"
           style="fill:#ffffff;fill-opacity:1;fill-rule:nonzero;stroke:none;stroke-width:0.32619047"
           d="m 1463.3629,1849.1927 c 0,0 0.8742,0.4306 1.781,0.8285 0.4567,0.1957 0.9101,0.3947 1.2526,0.5415 0.3523,0.137 0.5871,0.2251 0.5871,0.2251 0,0 -0.1109,-0.2251 -0.274,-0.5643 -0.1761,-0.3295 -0.411,-0.7666 -0.6426,-1.2037 -0.473,-0.8709 -0.9753,-1.7092 -0.9753,-1.7092 l -1.7288,1.8821" />
        <path
           inkscape:connector-curvature="0"
           id="path52"
           style="fill:#333333;fill-opacity:1;fill-rule:nonzero;stroke:none;stroke-width:0.32619047"
           d="m 1509.4993,1852.5753 h -1.4744 v 46.3615 h 1.4744 c 4.6449,0 8.4092,-3.761 8.4092,-8.406 v -29.5496 c 0,-4.6417 -3.7643,-8.4059 -8.4092,-8.4059" />
        <path
           inkscape:connector-curvature="0"
           id="path54"
           style="fill:#333333;fill-opacity:1;fill-rule:nonzero;stroke:none;stroke-width:0.32619047"
           d="m 1362.8522,1852.5753 h -1.4728 c -4.6446,0 -8.4085,3.7642 -8.4085,8.4059 v 29.5496 c 0,4.645 3.7639,8.406 8.4085,8.406 h 1.4728 v -46.3615" />
        <path
           inkscape:connector-curvature="0"
           id="path56"
           style="fill:#ffffff;fill-opacity:1;fill-rule:nonzero;stroke:none;stroke-width:0.32619047"
           d="m 1415.6771,1882.2162 c 0,-9.2344 -7.4857,-16.7205 -16.7208,-16.7205 -9.2355,0 -16.7225,7.4861 -16.7225,16.7205 0,9.2377 7.487,16.7206 16.7225,16.7206 9.2351,0 16.7208,-7.4829 16.7208,-16.7206" />
        <path
           inkscape:connector-curvature="0"
           id="path58"
           style="fill:#333333;fill-opacity:1;fill-rule:nonzero;stroke:none;stroke-width:0.32619047"
           d="m 1409.5969,1882.2162 c 0,-5.8747 -4.7643,-10.6403 -10.6406,-10.6403 -5.878,0 -10.642,4.7656 -10.642,10.6403 0,5.878 4.764,10.6404 10.642,10.6404 5.8763,0 10.6406,-4.7624 10.6406,-10.6404" />
        <path
           inkscape:connector-curvature="0"
           id="path60"
           style="fill:#ffffff;fill-opacity:1;fill-rule:nonzero;stroke:none;stroke-width:0.32619047"
           d="m 1397.0934,1886.7405 c 0,-1.308 -1.0601,-2.3682 -2.3675,-2.3682 -1.3061,0 -2.3662,1.0602 -2.3662,2.3682 0,1.308 1.0601,2.3649 2.3662,2.3649 1.3074,0 2.3675,-1.0569 2.3675,-2.3649" />
        <path
           inkscape:connector-curvature="0"
           id="path62"
           style="fill:#ffffff;fill-opacity:1;fill-rule:nonzero;stroke:none;stroke-width:0.32619047"
           d="m 1488.6459,1882.2162 c 0,-9.2344 -7.4893,-16.7205 -16.7238,-16.7205 -9.2344,0 -16.7205,7.4861 -16.7205,16.7205 0,9.2377 7.4861,16.7206 16.7205,16.7206 9.2345,0 16.7238,-7.4829 16.7238,-16.7206" />
        <path
           inkscape:connector-curvature="0"
           id="path64"
           style="fill:#333333;fill-opacity:1;fill-rule:nonzero;stroke:none;stroke-width:0.32619047"
           d="m 1482.5625,1882.2162 c 0,-5.8747 -4.7624,-10.6403 -10.6404,-10.6403 -5.8747,0 -10.6403,4.7656 -10.6403,10.6403 0,5.878 4.7656,10.6404 10.6403,10.6404 5.878,0 10.6404,-4.7624 10.6404,-10.6404" />
        <path
           inkscape:connector-curvature="0"
           id="path66"
           style="fill:#ffffff;fill-opacity:1;fill-rule:nonzero;stroke:none;stroke-width:0.32619047"
           d="m 1470.0596,1886.7405 c 0,-1.308 -1.0601,-2.3682 -2.3649,-2.3682 -1.308,0 -2.3681,1.0602 -2.3681,2.3682 0,1.308 1.0601,2.3649 2.3681,2.3649 1.3048,0 2.3649,-1.0569 2.3649,-2.3649" />
        <path
           inkscape:connector-curvature="0"
           id="path68"
           style="fill:#ffffff;fill-opacity:1;fill-rule:nonzero;stroke:none;stroke-width:0.32619047"
           d="m 1435.4377,1856.3819 v 0 c -2.7987,0 -5.069,2.2703 -5.069,5.069 v 20.2467 c 0,2.802 2.2703,5.0722 5.069,5.0722 v 0 c 2.802,0 5.0723,-2.2702 5.0723,-5.0722 v -20.2467 c 0,-2.7987 -2.2703,-5.069 -5.0723,-5.069" />
        <path
           inkscape:connector-curvature="0"
           id="path70"
           style="fill:#333333;fill-opacity:1;fill-rule:nonzero;stroke:none;stroke-width:0.32619047"
           d="m 1518.4891,1625.0444 h -166.1004 c -5.4037,0 -9.7858,4.3807 -9.7858,9.7857 v 169.8865 c 0,5.405 4.3821,9.7857 9.7858,9.7857 h 166.1004 c 5.405,0 9.7857,-4.3807 9.7857,-9.7857 v -169.8865 c 0,-5.405 -4.3807,-9.7857 -9.7857,-9.7857" />
        <path
           inkscape:connector-curvature="0"
           id="path72"
           style="fill:#333333;fill-opacity:1;fill-rule:nonzero;stroke:none;stroke-width:0.32619047"
           d="m 1317.2214,1792.6182 c -5.6907,0 -10.321,-4.6286 -10.321,-10.3206 0,-5.6921 4.6303,-10.3207 10.321,-10.3207 5.6917,0 10.322,4.6286 10.322,10.3207 0,5.692 -4.6303,10.3206 -10.322,10.3206 z m 0,-32.818 c -12.4044,0 -22.4944,10.0923 -22.4944,22.4974 0,12.405 10.09,22.4941 22.4944,22.4941 12.4041,0 22.4954,-10.0891 22.4954,-22.4941 0,-12.4051 -10.0913,-22.4974 -22.4954,-22.4974" />
        <path
           inkscape:connector-curvature="0"
           id="path74"
           style="fill:#333333;fill-opacity:1;fill-rule:nonzero;stroke:none;stroke-width:0.32619047"
           d="m 1317.2214,1697.4326 c -5.6907,0 -10.321,-4.6287 -10.321,-10.3207 0,-5.692 4.6303,-10.3206 10.321,-10.3206 5.6917,0 10.322,4.6286 10.322,10.3206 0,5.692 -4.6303,10.3207 -10.322,10.3207 z m 0,-32.8148 c -12.4044,0 -22.4944,10.0924 -22.4944,22.4941 0,12.405 10.09,22.4941 22.4944,22.4941 12.4041,0 22.4954,-10.0891 22.4954,-22.4941 0,-12.4017 -10.0913,-22.4941 -22.4954,-22.4941" />
        <path
           inkscape:connector-curvature="0"
           id="path76"
           style="fill:#333333;fill-opacity:1;fill-rule:nonzero;stroke:none;stroke-width:0.32619047"
           d="m 1328.8012,1587.0138 c -1.7432,0 -3.4749,0.7438 -4.6776,2.192 -2.1535,2.5802 -1.8055,6.4195 0.776,8.5691 2.7407,2.2866 4.3116,5.6398 4.3116,9.2051 0,6.6053 -5.373,11.9777 -11.9784,11.9777 -6.6181,0 -12.0015,-5.3724 -12.0015,-11.9777 0,-3.5653 1.5709,-6.9185 4.3116,-9.2051 2.5818,-2.1529 2.9295,-5.9921 0.776,-8.5723 -2.1545,-2.5834 -5.9898,-2.9292 -8.5726,-0.7763 -5.5224,4.6058 -8.6888,11.3677 -8.6888,18.5537 0,13.3183 10.8459,24.1511 24.1753,24.1511 13.3177,0 24.1521,-10.8328 24.1521,-24.1511 0,-7.1893 -3.1663,-13.9512 -8.6887,-18.5537 -1.139,-0.9493 -2.5205,-1.4125 -3.895,-1.4125" />
        <path
           inkscape:connector-curvature="0"
           id="path78"
           style="fill:#333333;fill-opacity:1;fill-rule:nonzero;stroke:none;stroke-width:0.32619047"
           d="m 1326.9598,1748.5303 h -19.4771 v 10.0532 h 19.4771 z m 0,-12.5681 h -19.4771 v 10.0532 h 19.4771 z m 0,-12.5681 h -19.4771 v 10.0532 h 19.4771 z m 0,-12.5681 h -19.4771 v 10.0532 h 19.4771 v -10.0532" />
        <path
           inkscape:connector-curvature="0"
           id="path80"
           style="fill:#333333;fill-opacity:1;fill-rule:nonzero;stroke:none;stroke-width:0.32619047"
           d="m 1326.9598,1654.5288 h -19.4771 v 8.8723 h 19.4771 z m 0,-11.0873 h -19.4771 v 8.8692 h 19.4771 z m 0,-11.0937 h -19.4771 v 8.8724 h 19.4771 v -8.8724" />
        <path
           inkscape:connector-curvature="0"
           id="path82"
           style="fill:#333333;fill-opacity:1;fill-rule:nonzero;stroke:none;stroke-width:0.32619047"
           d="m 1551.4702,1789.5064 c -4.0219,-4.0252 -4.0219,-10.5719 0,-14.5971 4.0252,-4.0251 10.5751,-4.0251 14.6003,0 4.0219,4.0252 4.0219,10.5719 0,14.5971 -4.0219,4.0252 -10.5718,4.0252 -14.597,0 z m 23.2052,-23.2052 c -8.768,-8.7713 -23.0421,-8.7713 -31.8134,0 -8.768,8.7712 -8.768,23.0421 0,31.8133 8.7713,8.7713 23.0421,8.7713 31.8134,0 8.7713,-8.7712 8.7713,-23.0421 0,-31.8133" />
        <path
           inkscape:connector-curvature="0"
           id="path84"
           style="fill:#333333;fill-opacity:1;fill-rule:nonzero;stroke:none;stroke-width:0.32619047"
           d="m 1618.7763,1722.2002 c -4.0251,-4.0252 -4.0251,-10.5718 0,-14.597 4.0252,-4.0252 10.5719,-4.0252 14.5971,0 4.0252,4.0252 4.0252,10.5718 0,14.597 -4.0252,4.0252 -10.5719,4.0252 -14.5971,0 z m 23.2052,-23.2052 c -8.7712,-8.7712 -23.0421,-8.7712 -31.8133,0 -8.768,8.7713 -8.768,23.0421 0,31.8134 8.7712,8.7713 23.0421,8.7713 31.8133,0 8.7713,-8.7713 8.7713,-23.0421 0,-31.8134" />
        <path
           inkscape:connector-curvature="0"
           id="path86"
           style="fill:#333333;fill-opacity:1;fill-rule:nonzero;stroke:none;stroke-width:0.32619047"
           d="m 1589.5334,1765.2182 -13.7718,-13.775 -7.1109,7.111 13.7717,13.7717 z m 8.8887,-8.8887 -13.7751,-13.7717 -7.1077,7.1077 13.7718,13.775 z m 8.8854,-8.8854 -13.7718,-13.775 -7.1109,7.1109 13.7717,13.7718 z m 8.8854,-8.8887 -13.7717,-13.7717 -7.1077,7.1076 13.7717,13.7751 7.1077,-7.111" />
        <path
           inkscape:connector-curvature="0"
           id="path88"
           style="fill:#333333;fill-opacity:1;fill-rule:nonzero;stroke:none;stroke-width:0.32619047"
           d="m 1385.297,1548.6251 c -6.999,0 -12.6946,-5.6995 -12.6946,-12.6986 0,-7.0003 5.6956,-12.692 12.6946,-12.692 7.0017,0 12.6973,5.6917 12.6973,12.692 0,6.9991 -5.6956,12.6986 -12.6973,12.6986 z m 0,-37.5644 c -13.7127,0 -24.8684,11.1557 -24.8684,24.8658 0,13.7154 11.1557,24.8721 24.8684,24.8721 13.7141,0 24.8708,-11.1567 24.8708,-24.8721 0,-13.7101 -11.1567,-24.8658 -24.8708,-24.8658" />
        <path
           inkscape:connector-curvature="0"
           id="path90"
           style="fill:#333333;fill-opacity:1;fill-rule:nonzero;stroke:none;stroke-width:0.32619047"
           d="m 1364.7418,1440.5119 c -0.2358,0 -0.4726,0.013 -0.7121,0.042 -3.3398,0.3885 -5.7301,3.4084 -5.3413,6.7518 1.5735,13.4886 13.0156,23.6629 26.6135,23.6629 13.5855,0 25.0149,-10.1743 26.5872,-23.6655 0.3888,-3.3408 -2.0028,-6.3607 -5.3414,-6.7492 -3.3715,-0.3872 -6.362,2.0031 -6.7505,5.3401 -0.8563,7.3559 -7.0885,12.9011 -14.4953,12.9011 -7.4208,0 -13.6641,-5.5491 -14.5203,-12.9011 -0.3634,-3.0988 -2.9932,-5.3822 -6.0398,-5.3822" />
        <path
           inkscape:connector-curvature="0"
           id="path92"
           style="fill:#333333;fill-opacity:1;fill-rule:nonzero;stroke:none;stroke-width:0.32619047"
           d="m 1396.4459,1606.2297 h -22.2954 v 11.5113 h 22.2954 z m 0,-14.385 h -22.2954 v 11.508 h 22.2954 z m 0,-14.3882 h -22.2954 v 11.5112 h 22.2954 z m 0,-14.3847 h -22.2954 v 11.5077 h 22.2954 v -11.5077" />
        <path
           inkscape:connector-curvature="0"
           id="path94"
           style="fill:#333333;fill-opacity:1;fill-rule:nonzero;stroke:none;stroke-width:0.32619047"
           d="m 1396.4459,1498.6299 h -22.2954 v 10.154 h 22.2954 z m 0,-12.692 h -22.2954 v 10.1539 h 22.2954 z m 0,-12.6999 h -22.2954 v 10.1579 h 22.2954 v -10.1579" />
        <path
           inkscape:connector-curvature="0"
           id="path96"
           style="fill:#333333;fill-opacity:1;fill-rule:nonzero;stroke:none;stroke-width:0.32619047"
           d="m 1485.5993,1548.6251 c -7,0 -12.6953,-5.6995 -12.6953,-12.6986 0,-7.0003 5.6953,-12.692 12.6953,-12.692 6.9968,0 12.6953,5.6917 12.6953,12.692 0,6.9991 -5.6985,12.6986 -12.6953,12.6986 z m 0,-37.5644 c -13.713,0 -24.8688,11.1557 -24.8688,24.8658 0,13.7154 11.1558,24.8721 24.8688,24.8721 13.7131,0 24.8688,-11.1567 24.8688,-24.8721 0,-13.7101 -11.1557,-24.8658 -24.8688,-24.8658" />
        <path
           inkscape:connector-curvature="0"
           id="path98"
           style="fill:#333333;fill-opacity:1;fill-rule:nonzero;stroke:none;stroke-width:0.32619047"
           d="m 1506.1363,1440.5119 c -3.0499,0 -5.679,2.2834 -6.0411,5.3822 -0.8546,7.3559 -7.0848,12.9011 -14.4926,12.9011 -7.4209,0 -13.6642,-5.5452 -14.5188,-12.9011 -0.3914,-3.3396 -3.4315,-5.7312 -6.7521,-5.3401 -3.3402,0.3885 -5.7279,3.4084 -5.343,6.7492 1.5722,13.4912 13.015,23.6655 26.6139,23.6655 13.5825,0 25.0155,-10.1743 26.5878,-23.6655 0.3849,-3.3408 -2.0029,-6.3607 -5.343,-6.7492 -0.2382,-0.029 -0.4763,-0.042 -0.7111,-0.042" />
        <path
           inkscape:connector-curvature="0"
           id="path100"
           style="fill:#333333;fill-opacity:1;fill-rule:nonzero;stroke:none;stroke-width:0.32619047"
           d="m 1496.7452,1606.2297 h -22.2951 v 11.5113 h 22.2951 z m 0,-14.385 h -22.2951 v 11.508 h 22.2951 z m 0,-14.3882 h -22.2951 v 11.5112 h 22.2951 z m 0,-14.3847 h -22.2951 v 11.5077 h 22.2951 v -11.5077" />
        <path
           inkscape:connector-curvature="0"
           id="path102"
           style="fill:#333333;fill-opacity:1;fill-rule:nonzero;stroke:none;stroke-width:0.32619047"
           d="m 1496.7452,1498.6299 h -22.2951 v 10.154 h 22.2951 z m 0,-12.692 h -22.2951 v 10.1539 h 22.2951 z m 0,-12.6999 h -22.2951 v 10.1579 h 22.2951 v -10.1579" />
        <path
           inkscape:connector-curvature="0"
           id="path104"
           style="fill:#333333;fill-opacity:1;fill-rule:nonzero;stroke:none;stroke-width:0.32619047"
           d="m 1690.5904,1792.8303 c 1.233,-1.233 1.9311,-2.9814 1.7615,-4.8538 -0.3034,-3.3499 -3.2652,-5.8159 -6.6119,-5.5126 -3.5522,0.3229 -7.0359,-0.9394 -9.5574,-3.4609 -4.6678,-4.6677 -4.6678,-12.268 0,-16.939 4.6808,-4.6809 12.2876,-4.6874 16.9587,-0.016 2.5181,2.5214 3.7805,6.0019 3.4576,9.5573 -0.3001,3.3468 2.1659,6.3086 5.5159,6.6119 3.3467,0.3001 6.3052,-2.1659 6.6086,-5.5159 0.6491,-7.1598 -1.8952,-14.1795 -6.974,-19.2615 -9.4171,-9.4171 -24.7481,-9.4106 -34.175,0.016 -9.4138,9.4171 -9.4138,24.7415 0,34.1554 5.0821,5.0821 12.105,7.6263 19.2649,6.9772 1.4743,-0.137 2.7791,-0.7861 3.7511,-1.7581" />
        <path
           inkscape:connector-curvature="0"
           id="path106"
           style="fill:#333333;fill-opacity:1;fill-rule:nonzero;stroke:none;stroke-width:0.32619047"
           d="m 1644.154,1743.7908 13.7717,-13.775 -6.2726,-6.2727 -13.7718,13.775 z m 7.8416,7.8416 13.7717,-13.775 -6.2726,-6.2727 -13.7718,13.7751 z m 7.8416,7.8416 13.7718,-13.7717 -6.2727,-6.276 -13.7717,13.7718 6.2726,6.2759" />
        <path
           inkscape:connector-curvature="0"
           id="path108"
           style="fill:#ffffff;fill-opacity:1;fill-rule:nonzero;stroke:none;stroke-width:0.32619047"
           d="m 1692.3845,1833.1898 h -27.3152 c -14.1273,0 -25.5309,11.8733 -25.5309,26.5813 v 128.4766 c 0,14.6199 11.4036,26.5813 25.5309,26.5813 h 200.6495 c 14.1274,0 25.5277,-11.9614 25.5277,-26.5813 v -128.4766 c 0,-14.708 -11.4003,-26.5813 -25.5277,-26.5813 h -117.3437 l -55.9906,-63.5321 v 63.5321" />
        <text
           xml:space="preserve"
           style="font-style:normal;font-variant:normal;font-weight:normal;font-stretch:normal;font-size:62.2536087px;line-height:1.25;font-family:'Courier New';-inkscape-font-specification:'Courier New';letter-spacing:0px;word-spacing:0px;fill:#000000;fill-opacity:1;stroke:none;stroke-width:1.55634034"
           x="1768.4554"
           y="-1945.1149"
           id="text1006"
           transform="scale(1,-1)"><tspan
             sodipodi:role="line"
             id="tspan1004"
             x="1768.4554"
             y="-1945.1149"
             style="font-style:normal;font-variant:normal;font-weight:bold;font-stretch:normal;font-size:58.10336685px;font-family:'Courier New';-inkscape-font-specification:'Courier New Bold';text-align:center;text-anchor:middle;stroke-width:1.55634034">Click</tspan><tspan
             sodipodi:role="line"
             x="1768.4554"
             y="-1867.2979"
             style="font-style:normal;font-variant:normal;font-weight:bold;font-stretch:normal;font-size:58.10336685px;font-family:'Courier New';-inkscape-font-specification:'Courier New Bold';text-align:center;text-anchor:middle;stroke-width:1.55634034"
             id="tspan1008">me!</tspan></text>
        <flowRoot
           xml:space="preserve"
           id="flowRoot1010"
           style="font-style:normal;font-variant:normal;font-weight:normal;font-stretch:normal;font-size:40px;line-height:1.25;font-family:'Courier New';-inkscape-font-specification:'Courier New';letter-spacing:0px;word-spacing:0px;fill:#000000;fill-opacity:1;stroke:none"
           transform="matrix(2.4082569,0,0,-2.4082569,1138.2428,2162.1485)"><flowRegion
             id="flowRegion1012"><rect
               id="rect1014"
               width="51.51778"
               height="46.467018"
               x="237.38585"
               y="87.372696" /></flowRegion><flowPara
             id="flowPara1016"></flowPara></flowRoot>      </g>
    </g>
  </g>
</svg>
